<svg width="200" height="43" viewBox="0 0 200 43" fill="none" xmlns="http://www.w3.org/2000/svg">
<path d="M9.14518 33.2679C6.03457 33.2679 3.73273 32.5214 2.23963 31.0283C0.746541 29.5352 0 27.2333 0 24.1227V18.7103C0 15.5997 0.746541 13.2978 2.23963 11.8047C3.73273 10.3116 6.03457 9.58066 9.14518 9.61176H12.9712C17.5749 9.61176 20.25 11.1982 20.9966 14.371C21.0277 14.4954 21.0432 14.6509 21.0432 14.8376C21.0432 15.3353 20.8566 15.7241 20.4833 16.0041C20.1412 16.284 19.6746 16.424 19.0836 16.424C18.5236 16.424 18.0882 16.284 17.7771 16.0041C17.4972 15.7241 17.2328 15.2731 16.9839 14.6509C16.7662 14.2466 16.3462 13.9666 15.7241 13.8111C15.102 13.6244 14.1844 13.5311 12.9712 13.5311H9.14518C7.77651 13.5 6.71891 13.64 5.97236 13.9511C5.22582 14.2621 4.69701 14.7909 4.38596 15.5375C4.07489 16.284 3.91936 17.3416 3.91936 18.7103V24.1227C3.91936 25.4914 4.07489 26.549 4.38596 27.2956C4.69701 28.0421 5.22582 28.5709 5.97236 28.882C6.71891 29.193 7.77651 29.3486 9.14518 29.3486H12.9712C14.1844 29.3486 15.102 29.2708 15.7241 29.1153C16.3462 28.9286 16.7662 28.6331 16.9839 28.2287C17.2328 27.5755 17.4972 27.1245 17.7771 26.8756C18.0882 26.5957 18.5392 26.4557 19.1302 26.4557C19.6901 26.4557 20.1412 26.5957 20.4833 26.8756C20.8566 27.1556 21.0432 27.5444 21.0432 28.0421C21.0432 28.2287 21.0277 28.3843 20.9966 28.5087C20.25 31.6815 17.5749 33.2679 12.9712 33.2679H9.14518Z" fill="#777887"/>
<path d="M43.8356 9.61179C46.9462 9.61179 49.2481 10.3583 50.7412 11.8514C52.2343 13.3445 52.9808 15.6464 52.9808 18.757V31.3083C52.9808 31.9304 52.8097 32.4125 52.4675 32.7547C52.1254 33.0969 51.6432 33.2679 51.0211 33.2679C50.399 33.2679 49.9169 33.0969 49.5747 32.7547C49.2325 32.4125 49.0614 31.9304 49.0614 31.3083V30.2351C47.4128 32.257 44.9866 33.2679 41.7826 33.2679H39.1697C36.5568 33.2679 34.6127 32.6303 33.3373 31.3549C32.062 30.0796 31.4243 28.1354 31.4243 25.5225C31.4243 22.9096 32.0464 20.9655 33.2907 19.6901C34.566 18.4148 36.5257 17.7771 39.1697 17.7771H49.0148C48.9215 16.1596 48.5015 15.0553 47.755 14.4643C47.0084 13.8422 45.702 13.5311 43.8356 13.5311H41.1294C39.5741 13.5311 38.4076 13.64 37.63 13.8578C36.8834 14.0755 36.3546 14.4488 36.0436 14.9776C35.7636 15.6308 35.4681 16.0818 35.157 16.3307C34.846 16.5795 34.4105 16.704 33.8506 16.704C33.2907 16.704 32.8241 16.564 32.4508 16.284C32.1086 16.0041 31.9376 15.6308 31.9376 15.1642C31.9376 14.9776 31.9531 14.822 31.9842 14.6976C32.4508 12.9557 33.4151 11.6803 34.8771 10.8716C36.3702 10.0317 38.4543 9.61179 41.1294 9.61179H43.8356ZM48.8281 26.1291C48.8592 26.0358 48.8904 25.9425 48.9215 25.8491C48.9526 25.7247 48.9992 25.6003 49.0614 25.4759V21.6965H39.1697C38.1121 21.6965 37.3189 21.8054 36.7901 22.0231C36.2613 22.2408 35.888 22.6141 35.6703 23.1429C35.4526 23.6717 35.3437 24.4649 35.3437 25.5225C35.3437 26.5801 35.4526 27.3733 35.6703 27.9021C35.888 28.4309 36.2613 28.8042 36.7901 29.022C37.3189 29.2397 38.1121 29.3486 39.1697 29.3486H41.7826C45.7331 29.3486 48.0816 28.2754 48.8281 26.1291V26.1291Z" fill="#80818E"/>
<path d="M72.3372 33.2679C68.3867 33.2679 66.0849 31.6349 65.4316 28.3687C65.4005 28.2754 65.385 28.1354 65.385 27.9488C65.385 27.42 65.5561 27.0156 65.8982 26.7357C66.2715 26.4246 66.7536 26.2691 67.3447 26.2691C67.9357 26.2691 68.3867 26.4246 68.6978 26.7357C69.0088 27.0156 69.2577 27.4978 69.4443 28.1821C69.631 28.6487 69.9265 28.9597 70.3308 29.1153C70.7663 29.2708 71.4351 29.3486 72.3372 29.3486H79.9893C81.2024 29.3486 82.0112 29.1464 82.4155 28.742C82.851 28.3376 83.0688 27.5133 83.0688 26.2691C83.0688 25.0248 82.851 24.2005 82.4155 23.7961C82.0112 23.3918 81.2024 23.1896 79.9893 23.1896H72.4772C67.9668 23.1896 65.7116 20.9344 65.7116 16.424C65.7116 14.1222 66.2715 12.4113 67.3913 11.2915C68.5111 10.1717 70.2064 9.61179 72.4772 9.61179H79.756C83.4265 9.61179 85.5884 11.1515 86.2416 14.231C86.2727 14.3244 86.2883 14.4643 86.2883 14.651C86.2883 15.1487 86.1016 15.553 85.7283 15.8641C85.3862 16.1441 84.9196 16.284 84.3286 16.284C83.7375 16.284 83.2865 16.1441 82.9754 15.8641C82.6955 15.553 82.4622 15.0865 82.2756 14.4643C82.0889 14.0911 81.809 13.8422 81.4357 13.7178C81.0624 13.5934 80.5025 13.5311 79.756 13.5311H72.4772C71.6684 13.5311 71.0618 13.6089 70.6574 13.7644C70.2531 13.8889 69.9731 14.1533 69.8176 14.5576C69.6932 14.962 69.631 15.5841 69.631 16.424C69.631 17.5438 69.8176 18.3059 70.1909 18.7103C70.5641 19.0836 71.3262 19.2702 72.4772 19.2702H79.9893C84.6552 19.2702 86.9881 21.6032 86.9881 26.2691C86.9881 30.935 84.6552 33.2679 79.9893 33.2679H72.3372Z" fill="#898A96"/>
<path d="M112.583 9.61176C115.694 9.61176 117.995 10.3583 119.489 11.8514C120.982 13.3445 121.728 15.6463 121.728 18.7569V31.3082C121.728 31.9304 121.557 32.4125 121.215 32.7547C120.873 33.0968 120.391 33.2679 119.768 33.2679C119.146 33.2679 118.664 33.0968 118.322 32.7547C117.98 32.4125 117.809 31.9304 117.809 31.3082V18.7569C117.809 17.3883 117.653 16.3307 117.342 15.5841C117.031 14.8376 116.502 14.3088 115.756 13.9977C115.009 13.6867 113.952 13.5311 112.583 13.5311H111.277C109.224 13.5311 107.622 13.7955 106.471 14.3243C105.32 14.8531 104.573 15.6619 104.231 16.7506C104.2 16.9061 104.122 17.1394 103.998 17.4505V31.3082C103.998 31.9304 103.827 32.4125 103.484 32.7547C103.142 33.0968 102.66 33.2679 102.038 33.2679C101.416 33.2679 100.934 33.0968 100.592 32.7547C100.249 32.4125 100.078 31.9304 100.078 31.3082V17.7771C99.9228 17.5282 99.8451 17.2638 99.8451 16.9839C99.8451 16.7973 99.8606 16.6573 99.8917 16.564C99.9539 16.2529 100.016 16.0041 100.078 15.8174V2.3796C100.078 1.75748 100.249 1.27534 100.592 0.933172C100.934 0.591005 101.416 0.419922 102.038 0.419922C102.66 0.419922 103.142 0.591005 103.484 0.933172C103.827 1.27534 103.998 1.75748 103.998 2.3796V11.1048C105.895 10.1095 108.321 9.61176 111.277 9.61176H112.583Z" fill="#91929D"/>
<path d="M145.533 29.3486C146.84 29.3486 147.493 30.0018 147.493 31.3082C147.493 31.9304 147.322 32.4125 146.98 32.7547C146.637 33.0968 146.155 33.2679 145.533 33.2679C142.454 33.2679 140.183 32.5369 138.721 31.0749C137.259 29.613 136.528 27.3578 136.528 24.3094V13.5311H134.242C133.62 13.5311 133.137 13.36 132.795 13.0179C132.453 12.6757 132.282 12.1936 132.282 11.5714C132.282 10.265 132.935 9.61176 134.242 9.61176H136.528V6.20565C136.528 5.58353 136.699 5.10139 137.041 4.75922C137.383 4.41705 137.866 4.24597 138.488 4.24597C139.11 4.24597 139.592 4.41705 139.934 4.75922C140.276 5.10139 140.447 5.58353 140.447 6.20565V9.61176H145.813C147.12 9.61176 147.773 10.265 147.773 11.5714C147.773 12.1936 147.602 12.6757 147.26 13.0179C146.917 13.36 146.435 13.5311 145.813 13.5311H140.447V24.3094C140.447 25.6469 140.603 26.6734 140.914 27.3889C141.225 28.1043 141.738 28.6176 142.454 28.9286C143.169 29.2086 144.196 29.3486 145.533 29.3486V29.3486Z" fill="#9E9FA7"/>
<path d="M161.637 33.2679C161.015 33.2679 160.533 33.0968 160.191 32.7547C159.849 32.4125 159.678 31.9304 159.678 31.3082V11.5714C159.678 10.9493 159.849 10.4672 160.191 10.125C160.533 9.78285 161.015 9.61177 161.637 9.61177C162.259 9.61177 162.742 9.78285 163.084 10.125C163.426 10.4672 163.597 10.9493 163.597 11.5714V31.3082C163.597 31.9304 163.426 32.4125 163.084 32.7547C162.742 33.0968 162.259 33.2679 161.637 33.2679V33.2679ZM160.984 5.78572C160.269 5.78572 159.709 5.58353 159.304 5.17915C158.931 4.77478 158.744 4.23042 158.744 3.54609V2.14632C158.744 1.43088 158.931 0.902074 159.304 0.559908C159.709 0.186635 160.269 0 160.984 0H162.337C163.737 0 164.437 0.715439 164.437 2.14632V3.54609C164.437 4.26153 164.25 4.82144 163.877 5.22582C163.535 5.59909 163.022 5.78572 162.337 5.78572H160.984Z" fill="#AEAEB3"/>
<path d="M190.855 9.61179C193.965 9.61179 196.267 10.3583 197.76 11.8514C199.253 13.3445 200 15.6464 200 18.757V24.1228C200 27.2334 199.253 29.5352 197.76 31.0283C196.267 32.5214 193.965 33.2679 190.855 33.2679H181.803V40.6401C181.803 41.2622 181.632 41.7443 181.29 42.0865C180.948 42.4287 180.465 42.5997 179.843 42.5997C179.221 42.5997 178.739 42.4287 178.397 42.0865C178.055 41.7443 177.884 41.2622 177.884 40.6401V11.5715C177.884 10.9493 178.055 10.4672 178.397 10.125C178.739 9.78287 179.221 9.61179 179.843 9.61179C180.465 9.61179 180.948 9.78287 181.29 10.125C181.632 10.4672 181.803 10.9493 181.803 11.5715V12.178C183.514 10.4672 185.94 9.61179 189.082 9.61179H190.855ZM196.081 18.757C196.081 17.3883 195.925 16.3307 195.614 15.5841C195.303 14.8376 194.774 14.3088 194.028 13.9977C193.281 13.6867 192.223 13.5311 190.855 13.5311H189.082C187.029 13.5311 185.318 13.78 183.949 14.2777C182.612 14.7754 181.896 15.5064 181.803 16.4707V29.3486H190.855C192.223 29.3486 193.281 29.193 194.028 28.882C194.774 28.5709 195.303 28.0421 195.614 27.2956C195.925 26.549 196.081 25.4914 196.081 24.1228V18.757Z" fill="#CECECE"/>
</svg>
